<svg id="Layer_1" data-name="Layer 1" xmlns="http://www.w3.org/2000/svg" viewBox="0 0 1000 1000"><defs><style>.cls-1{font-size:150.29px;font-family:JosefinSans-Regular, Josefin Sans;}.cls-1,.cls-2{fill:#0a2239;}</style></defs><title>logo</title><text class="cls-1" transform="translate(15.75 541.84) scale(1.01 1)">good morning</text><path class="cls-2" d="M706.3,667.61c14.53-15.07,27.53-28.8,38.71-47.57,3-5,7.1-12.14,9.8-18,1.46-3.18,4.23-8.41,6.15-13.77l71.92,29.24,5.36-12.82-86.31-35.13-5.36,12.82.1,0c-1.5,3.64-3.14,7.34-6.14,14-2.42,5.37-5,12.51-11.13,21.11-10.84,15.13-20.49,27.27-33,40.31L695,659.31a41.08,41.08,0,0,1-3.8,3.78l-4.75,4.52a272.15,272.15,0,0,1-76.33,50.54l-2.61,1.3a50,50,0,0,1-5.61,2.3l-4.74,1.72A272,272,0,0,1,507,741.2c-2.34,0-4.67,0-7,0s-4.68.06-7,0a272,272,0,0,1-90.14-17.73q-6.55-2.51-13-5.32a272.15,272.15,0,0,1-76.33-50.54q-5.1-4.79-9.93-9.81c-17-17.66-44.91-66.86-56.54-88.56-13.7,6,0,0-12.36,5.39h0l-77,31.5,2.68,6.4,2.69,6.41,77.57-32.2c13.82,27.1,34.64,61.81,53,80.87L151.89,807.76l9.92,9.81L303.62,677.42A286.22,286.22,0,0,0,384.51,731l-31.65,75.5,6.49,2.66,6.48,2.65,31.64-75.49A286.3,286.3,0,0,0,493,755.07V953.14h14V755.07a286.3,286.3,0,0,0,95.51-18.78l31.64,75.49,6.48-2.65,6.49-2.66L615.49,731a286.22,286.22,0,0,0,80.89-53.55L838.19,817.57l5-4.9,5-4.91Z"/><path class="cls-2" d="M706.3,327.76c14.53,15.08,27.53,33.43,38.71,52.2,3,5,7.1,12.14,9.8,18,1.46,3.18,4.23,8.41,6.15,13.77l75.93-30.69,5.37,12.81-90.33,36.59-5.36-12.82.1,0c-1.5-3.64-3.14-7.34-6.14-14-2.42-5.37-5-12.51-11.13-21.11-10.84-15.13-20.49-27.27-33-40.31L695,340.69a41.08,41.08,0,0,0-3.8-3.78l-4.75-4.52a272.15,272.15,0,0,0-76.33-50.54l-2.61-1.3a50,50,0,0,0-5.61-2.3l-4.74-1.72A272,272,0,0,0,507,258.8c-2.34-.05-4.67,0-7,0s-4.68-.06-7,0a272,272,0,0,0-90.14,17.73q-6.55,2.5-13,5.32a272.15,272.15,0,0,0-76.33,50.54q-5.1,4.78-9.93,9.81c-17,17.66-44.91,66.86-56.54,88.56-13.7-5.95,0,0-12.36-5.39h0l-77-31.5,2.68-6.4,2.69-6.41,77.57,32.2c13.82-27.1,34.64-61.81,53-80.87L151.89,192.24l9.92-9.81L303.62,322.58A286.22,286.22,0,0,1,384.51,269l-31.65-75.5,6.49-2.66,6.48-2.65,31.64,75.49A286.3,286.3,0,0,1,493,244.93V46.86h14V244.93a286.3,286.3,0,0,1,95.51,18.78l31.64-75.49,6.48,2.65,6.49,2.66L615.49,269a286.22,286.22,0,0,1,80.89,53.55L838.19,182.43l5,4.9,5,4.91Z"/></svg>